<svg width="88" height="26" viewBox="0 0 88 26" fill="none" xmlns="http://www.w3.org/2000/svg">
<circle cx="75" cy="13" r="13" fill="#8FC2D8"/>
<circle cx="44" cy="13" r="13" fill="#8FC2D8"/>
<path d="M46.916 7.1665H41.0827C39.4719 7.1665 38.166 8.47234 38.166 10.0832V15.9165C38.166 17.5273 39.4719 18.8332 41.0827 18.8332H46.916C48.5268 18.8332 49.8327 17.5273 49.8327 15.9165V10.0832C49.8327 8.47234 48.5268 7.1665 46.916 7.1665Z" stroke="white" stroke-width="0.7" stroke-linecap="round" stroke-linejoin="round"/>
<path d="M46.3328 12.6327C46.4048 13.1182 46.3219 13.614 46.0959 14.0496C45.8698 14.4852 45.5122 14.8385 45.0738 15.0592C44.6354 15.2798 44.1386 15.3566 43.654 15.2786C43.1695 15.2007 42.7219 14.9719 42.3748 14.6249C42.0278 14.2778 41.799 13.8302 41.721 13.3456C41.6431 12.8611 41.7199 12.3643 41.9405 11.9259C42.1612 11.4875 42.5144 11.1299 42.9501 10.9038C43.3857 10.6778 43.8815 10.5949 44.367 10.6668C44.8622 10.7403 45.3207 10.971 45.6747 11.325C46.0287 11.679 46.2594 12.1375 46.3328 12.6327Z" stroke="white" stroke-width="0.7" stroke-linecap="round" stroke-linejoin="round"/>
<path d="M47.209 9.7915H47.2148" stroke="white" stroke-width="0.7" stroke-linecap="round" stroke-linejoin="round"/>
<circle cx="13" cy="13" r="13" fill="#8FC2D8"/>
<path d="M78.5007 7.1665H76.7507C75.9771 7.1665 75.2352 7.47379 74.6883 8.02078C74.1413 8.56776 73.834 9.30962 73.834 10.0832V11.8332H72.084V14.1665H73.834V18.8332H76.1673V14.1665H77.9173L78.5007 11.8332H76.1673V10.0832C76.1673 9.92846 76.2288 9.78009 76.3382 9.67069C76.4476 9.5613 76.5959 9.49984 76.7507 9.49984H78.5007V7.1665Z" stroke="white" stroke-width="0.7" stroke-linecap="round" stroke-linejoin="round"/>
<path d="M19.4173 12.6437C19.4197 13.5847 19.1999 14.513 18.7756 15.3529C18.2726 16.3595 17.4992 17.206 16.5422 17.7979C15.5852 18.3897 14.4823 18.7034 13.3571 18.7039C12.4161 18.7063 11.4878 18.4864 10.6479 18.0622L6.58398 19.4168L7.93861 15.3529C7.51435 14.513 7.29449 13.5847 7.29695 12.6437C7.29738 11.5185 7.61108 10.4156 8.20292 9.45857C8.79475 8.50156 9.64134 7.72822 10.6479 7.22518C11.4878 6.80092 12.4161 6.58106 13.3571 6.58352H13.7136C15.1997 6.6655 16.6033 7.29274 17.6557 8.34514C18.7081 9.39754 19.3353 10.8011 19.4173 12.2872V12.6437Z" stroke="white" stroke-width="0.7" stroke-linecap="round" stroke-linejoin="round"/>
<path d="M15.9159 14.2086V15.0632C15.9162 15.1426 15.9 15.2211 15.8682 15.2938C15.8364 15.3665 15.7898 15.4318 15.7313 15.4854C15.6728 15.539 15.6038 15.5799 15.5286 15.6053C15.4535 15.6307 15.3738 15.6401 15.2948 15.633C14.4182 15.5377 13.5761 15.2382 12.8362 14.7584C12.1479 14.321 11.5643 13.7374 11.1269 13.0491C10.6455 12.3059 10.3458 11.4597 10.2523 10.5791C10.2452 10.5003 10.2546 10.4209 10.2798 10.3459C10.3051 10.271 10.3456 10.2021 10.399 10.1437C10.4523 10.0853 10.5172 10.0386 10.5896 10.0066C10.6619 9.97465 10.7401 9.95811 10.8192 9.95804H11.6739C11.8122 9.95667 11.9462 10.0056 12.051 10.0958C12.1559 10.1859 12.2243 10.3111 12.2437 10.448C12.2798 10.7216 12.3467 10.9901 12.4431 11.2486C12.4814 11.3505 12.4897 11.4614 12.467 11.5679C12.4443 11.6744 12.3915 11.7722 12.3149 11.8497L11.9531 12.2115C12.3586 12.9247 12.9492 13.5153 13.6624 13.9208L14.0242 13.559C14.1017 13.4824 14.1995 13.4296 14.306 13.4069C14.4126 13.3842 14.5234 13.3925 14.6253 13.4308C14.8838 13.5273 15.1524 13.5942 15.4259 13.6302C15.5643 13.6498 15.6906 13.7195 15.781 13.8261C15.8713 13.9327 15.9193 14.0688 15.9159 14.2086Z" stroke="white" stroke-width="0.7" stroke-linecap="round" stroke-linejoin="round"/>
</svg>
